<svg id="Layer_1" data-name="Layer 1" xmlns="http://www.w3.org/2000/svg" viewBox="0 0 242.68 242.68"><defs><style>.cls-1{fill:none;stroke:rgba(0,0,0,0.8);stroke-miterlimit:10;stroke-width:3px;}.cls-2{fill:rgba(0,0,0,0.8);}</style></defs><title>MATA&amp;apos;S LOGO</title><circle class="cls-1" cx="121.34" cy="121.34" r="119.84"/><line class="cls-1" x1="121.34" y1="0.5" x2="121.34" y2="241.87"/><line class="cls-1" x1="0.66" y1="122.19" x2="242.03" y2="122.19"/><rect class="cls-2" x="118.32" y="1.97" width="6.04" height="14.4"/><rect class="cls-2" x="118.32" y="226.79" width="6.04" height="14.4"/><rect class="cls-2" x="64.57" y="173.03" width="6.04" height="14.4" transform="translate(-171.3 189.16) rotate(-90)"/><rect class="cls-2" x="289.39" y="173.03" width="6.04" height="14.4" transform="translate(53.52 413.98) rotate(-90)"/><line class="cls-1" x1="26.72" y1="127.2" x2="26.72" y2="117.17"/><line class="cls-1" x1="67.18" y1="127.2" x2="67.18" y2="117.17"/><line class="cls-1" x1="107.63" y1="127.2" x2="107.63" y2="117.17"/><line class="cls-1" x1="215.96" y1="117.17" x2="215.96" y2="127.2"/><line class="cls-1" x1="175.5" y1="117.17" x2="175.5" y2="127.2"/><line class="cls-1" x1="135.05" y1="117.17" x2="135.05" y2="127.2"/><line class="cls-1" x1="126.36" y1="216.8" x2="116.33" y2="216.8"/><line class="cls-1" x1="126.36" y1="176.35" x2="116.33" y2="176.35"/><line class="cls-1" x1="126.36" y1="135.89" x2="116.33" y2="135.89"/><line class="cls-1" x1="116.33" y1="27.57" x2="126.36" y2="27.57"/><line class="cls-1" x1="116.33" y1="68.02" x2="126.36" y2="68.02"/><line class="cls-1" x1="116.33" y1="108.48" x2="126.36" y2="108.48"/><path class="cls-2" d="M263.35,108.38V255.26H225.66v-55.6L220,210.26l-24,45H164.64l-23.91-45-5.65-10.63v55.63H97.39V108.38H136.1l41.75,75.47,2.65,4.79,2.61-4.81,40.94-75.45h39.3m3-3H222.26l-41.78,77-42.61-77H94.39V258.26h43.69V211.67l24.75,46.59h35l24.81-46.59v46.59h43.69V105.38Z" transform="translate(-58.66 -58.66)"/></svg>